HIERARCHY
ROOT pelvis
{
  OFFSET 0 100 0
  CHANNELS 6 Xposition Yposition Zposition Zrotation Xrotation Yrotation
  JOINT pelvis_right_femur
  {
    OFFSET -10.78128 -3.44521 -0.5502486
    CHANNELS 3 Zrotation Xrotation Yrotation
    JOINT right_femur_tibia
    {
      OFFSET -0.8047443 -44.0398 -0.1307829
      CHANNELS 3 Zrotation Xrotation Yrotation
      JOINT right_tibia_foot
      {
        OFFSET 3.006224 -47.83518 -5
        CHANNELS 3 Zrotation Xrotation Yrotation
        End Site
        {
          OFFSET 0 -5 15
        }
      }
    }
  }
  JOINT pelvis_left_femur
  {
    OFFSET 10.78128 -3.44521 -0.5502486
    CHANNELS 3 Zrotation Xrotation Yrotation
    JOINT left_femur_tibia
    {
      OFFSET 0.8047443 -44.0398 -0.1307829
      CHANNELS 3 Zrotation Xrotation Yrotation
      JOINT left_tibia_foot
      {
        OFFSET -4.370144 -48.10324 -4.275266
        CHANNELS 3 Zrotation Xrotation Yrotation
        End Site
        {
          OFFSET 0 -5 15
        }
      }
    }
  }
  JOINT pelvis_spine1
  {
    OFFSET 0 6.468898 -3.129235
    CHANNELS 3 Zrotation Xrotation Yrotation
    JOINT spine1
    {
      OFFSET 0 23.15396 4.99043
      CHANNELS 3 Zrotation Xrotation Yrotation
      JOINT spine2
      {
        OFFSET 0 20.79997 -5.064912
        CHANNELS 3 Zrotation Xrotation Yrotation
        JOINT neck
        {
          OFFSET 0 14.38658 9.616178
          CHANNELS 3 Zrotation Xrotation Yrotation
          End Site
          {
            OFFSET 0 20 0
          }
        }
      }
      JOINT right_manubrium
      {
        OFFSET -5.722621 16.35077 3.967754
        CHANNELS 3 Zrotation Xrotation Yrotation
        JOINT right_clavicle
        {
          OFFSET -13.16364 1.694482 -4.693211
          CHANNELS 3 Zrotation Xrotation Yrotation
          JOINT right_humerus
          {
            OFFSET -28.5034 -0.3100689 -2.792744
            CHANNELS 3 Zrotation Xrotation Yrotation
            JOINT right_radius
            {
              OFFSET -25.15693 0.02248979 -1.271978
              CHANNELS 3 Zrotation Xrotation Yrotation
              End Site
              {
                OFFSET -15 0 0
              }
            }
          }
        }
      }
      JOINT left_manubrium
      {
        OFFSET 5.722621 16.35077 3.967754
        CHANNELS 3 Zrotation Xrotation Yrotation
        JOINT left_clavicle
        {
          OFFSET 13.16364 1.694482 -4.693211
          CHANNELS 3 Zrotation Xrotation Yrotation
          JOINT left_humerus
          {
            OFFSET 29.39168 -1.063119 -2.237045
            CHANNELS 3 Zrotation Xrotation Yrotation
            JOINT left_radius
            {
              OFFSET 24.59957 -0.9528479 0.9047498
              CHANNELS 3 Zrotation Xrotation Yrotation
              End Site
              {
                OFFSET 15 -0 -0
              }
            }
          }
        }
      }
    }
  }
}
MOTION
Frames: 23
Frame Time: 0.0416666666667
840.264 99.4115 3046.328 2.969167 -3.564646 30.37159 2.758251 -23.23921 1.846892 -0 9.170415 -0 0.06103557 1.089695 -7.705704 -4.329339 19.13173 -7.228188 -0 30.64668 -0 -7.462601 -15.29638 11.68667 -2.149376 -0.8230344 3.181169 2.511759 8.896208 -6.722224 2.105206 20.84886 7.946079 3.82668 -23.88168 10.77464 5.79004 -15.79161 11.58619 84.07956 38.48051 -14.82215 -0 0 10.13864 -12.77771 15.3048 7.314858 7.007617 -19.38943 -0.2264952 -87.05841 16.25433 11.81904 0 0 -18.55035 17.12351 14.07458 -8.267423
843.5335 99.81849 3053.146 3.064886 -4.792507 30.21041 4.177991 -19.18366 3.260041 -0 12.78557 -0 -0.4748699 0.4581125 -7.672388 -3.791391 17.17043 -7.113496 -0 40.60726 -0 -8.162837 -12.0853 12.75402 -2.031678 -0.7223486 3.398016 2.421974 9.134825 -6.690291 1.98909 21.0148 7.703239 3.771872 -23.73334 10.34031 5.616397 -15.94438 11.56005 84.45567 37.89648 -15.16134 -0 0 10.13106 -12.81473 14.42239 7.419392 6.758588 -19.4487 -0.4676983 -87.4526 16.87811 12.52111 0 0 -17.91784 16.06543 13.63514 -6.947003
846.6579 100.9076 3059.773 3.351854 -6.121033 29.69843 5.230393 -14.22143 4.276575 -0 15.94221 -0 -1.341015 -1.151197 -7.415333 -3.333218 13.13568 -6.878295 -0 49.99099 -0 -8.493838 -9.438861 14.23287 -1.942519 -0.618556 3.687176 2.223207 9.381769 -6.522028 1.884591 21.27969 7.414282 3.713082 -23.41389 9.851563 5.459271 -16.16308 11.49895 84.56997 37.27668 -15.08305 -0 0 10.35427 -13.08073 13.5064 7.684541 6.45216 -19.38319 -0.7176418 -88.02472 17.53626 13.50053 0 0 -16.74294 14.87918 13.29279 -5.486865
849.5504 102.3413 3066.017 3.792111 -7.179136 28.93947 5.720894 -8.884763 4.827239 -0 17.38152 -0 -2.154524 -3.42672 -6.989012 -2.921856 7.360808 -6.548926 -0 56.63533 -0 -8.530265 -7.825529 15.75918 -1.89111 -0.5257026 4.020389 1.956703 9.593198 -6.249117 1.795506 21.59242 7.120282 3.654932 -22.99824 9.369827 5.304021 -16.43941 11.41632 84.4368 36.68034 -14.62521 -0 0 10.78373 -13.53066 12.6454 8.080427 6.125394 -19.20926 -0.9403628 -88.70157 18.16131 14.65871 0 0 -15.24736 13.68665 13.03541 -4.035413
852.2059 103.6873 3071.819 4.341806 -7.894836 28.07945 5.697953 -3.572525 4.968752 -0 16.96858 -0 -2.700255 -5.976896 -6.456951 -2.462049 0.6570795 -6.159106 -0 59.06753 -0 -8.263749 -7.265159 17.17538 -1.878728 -0.4535341 4.382979 1.652129 9.751314 -5.900325 1.718424 21.9196 6.8413 3.598328 -22.53938 8.921151 5.139043 -16.77386 11.32182 84.09355 36.12294 -13.85075 -0 0 11.39951 -14.11861 11.86266 8.581259 5.798068 -18.94896 -1.12161 -89.44518 18.72834 15.94986 0 0 -13.5723 12.53803 12.84307 -2.65055
854.7033 104.5863 3077.234 4.872139 -8.326528 27.22644 5.357562 1.502798 4.794602 -0 15.32542 -0 -2.922105 -8.511706 -5.832956 -1.859008 -6.116625 -5.712297 -0 56.87592 -0 -7.770616 -7.448155 18.43986 -1.904441 -0.410019 4.768925 1.328601 9.850451 -5.497132 1.647626 22.24101 6.585577 3.541883 -22.06989 8.513265 4.957804 -17.17215 11.22153 83.57329 35.60255 -12.81343 -0 0 12.19337 -14.80856 11.15508 9.170249 5.478936 -18.62107 -1.25723 -90.23961 19.23377 17.3613 0 0 -11.79958 11.44636 12.70085 -1.34415
857.1788 104.8579 3082.392 5.141884 -8.425904 26.41271 4.900334 6.199233 4.412352 -0 13.29072 -0 -2.831967 -10.88166 -5.045306 -1.065636 -12.37267 -5.203588 -0 50.65042 -0 -7.242927 -7.921153 19.46317 -1.967368 -0.4048526 5.173543 1.00225 9.888428 -5.060166 1.57711 22.54032 6.35847 3.48362 -21.6145 8.149785 4.761096 -17.63965 11.12037 82.90407 35.11952 -11.56562 -0 0 13.16079 -15.56303 10.51749 9.830331 5.173864 -18.24479 -1.34553 -91.07413 19.68121 18.88732 0 0 -9.997082 10.41728 12.60362 -0.1176394
859.7814 104.5225 3087.46 4.924688 -8.046451 25.61531 4.442257 10.31685 3.947124 -0 11.64269 -0 -2.476218 -12.95545 -4.000482 -0.1315023 -17.73809 -4.649449 -0 41.78405 -0 -6.821395 -8.2559 20.10302 -2.065023 -0.4476127 5.584344 0.6917739 9.864754 -4.61638 1.502931 22.80132 6.166973 3.422777 -21.19607 7.83788 4.560441 -18.16782 11.0235 82.12252 34.68797 -10.18246 -0 0 14.27471 -16.3292 9.95655 10.53013 4.891337 -17.84621 -1.38609 -91.92427 20.07365 20.49183 0 0 -8.254508 9.468561 12.55839 1.013482
862.6243 103.7525 3092.603 4.21545 -7.161597 24.81986 3.98746 13.64622 3.527706 -0 11.02804 -0 -1.947474 -14.49787 -2.728095 0.7428516 -21.87425 -4.147966 -0 32.26784 -0 -6.500346 -8.226525 20.31919 -2.18826 -0.5378757 5.972857 0.4184082 9.785599 -4.200729 1.427161 23.01205 6.018989 3.361932 -20.83314 7.589498 4.377734 -18.71617 10.93585 81.29382 34.33368 -8.783403 -0 0 15.44893 -17.03578 9.493611 11.21275 4.644544 -17.46072 -1.384101 -92.73614 20.40694 22.06882 0 0 -6.688708 8.640346 12.5793 2.003659
865.7546 102.775 3097.955 3.336823 -6.025297 24.06077 3.440237 16.15256 3.245002 -0 11.89397 -0 -1.388165 -15.12189 -1.457954 1.205208 -24.51073 -3.937906 -0 24.25049 -0 -6.196442 -7.944603 20.29244 -2.316409 -0.6552531 6.295902 0.2018497 9.673027 -3.85199 1.359784 23.16954 5.91906 3.308249 -20.54004 7.416454 4.237761 -19.20867 10.86169 80.52497 34.07853 -7.536561 -0 0 16.52474 -17.60352 9.152254 11.79603 4.45009 -17.13029 -1.355501 -93.42972 20.66554 23.43962 0 0 -5.416166 7.993144 12.67009 2.778389
869.1596 101.7991 3103.591 2.778835 -5.071031 23.40196 2.675099 17.99296 3.132419 -0 14.54264 -0 -0.9451 -14.32637 -0.5138519 0.9109809 -25.57067 -4.299898 -0 19.2459 -0 -5.836688 -7.754364 20.30505 -2.421098 -0.766947 6.512844 0.05678552 9.565529 -3.606679 1.312908 23.2757 5.865755 3.271518 -20.33448 7.32277 4.160427 -19.56235 10.8054 79.94401 33.93152 -6.629966 -0 0 17.32109 -17.96002 8.939056 12.1915 4.32315 -16.8984 -1.32409 -93.93011 20.83402 24.42192 0 0 -4.524998 7.583744 12.81008 3.270276
872.8009 101.0286 3109.515 2.851584 -4.614 22.92777 1.656591 19.19924 3.196086 -0 19.32573 -0 -0.6628365 -11.71615 -0.1085907 -0.2184606 -25.09884 -5.276795 -0 17.53032 -0 -5.358145 -7.901631 20.43081 -2.480712 -0.8503895 6.605969 -0.009130254 9.498935 -3.490629 1.291939 23.33038 5.853916 3.258932 -20.2366 7.302219 4.157899 -19.72907 10.7714 79.64216 33.89533 -6.203941 -0 0 17.72384 -18.05693 8.840075 12.3386 4.271289 -16.79884 -1.308564 -94.20287 20.91974 24.92133 0 0 -4.067937 7.429279 12.9668 3.468197
876.6308 100.6914 3115.653 3.487944 -4.66016 22.75992 0.522591 19.38549 3.40053 -0 26.48345 -0 -0.4365788 -7.356739 -0.2571974 -1.898228 -23.14611 -6.546444 -0 18.2763 -0 -4.709687 -8.372381 20.43834 -2.488793 -0.9022903 6.580176 0.006501957 9.488987 -3.515317 1.294637 23.32897 5.878819 3.27155 -20.26163 7.345139 4.233176 -19.70592 10.76316 79.64595 33.97058 -6.310724 -0 0 17.71563 -17.8789 8.837439 12.22114 4.294552 -16.84604 -1.313169 -94.25116 20.94841 24.93977 0 0 -4.072961 7.508188 13.11505 3.409659
880.5672 100.9794 3121.845 4.341307 -4.994927 23.01606 -0.4438646 17.8823 3.613551 -0 35.52901 -0 -0.1391441 -2.002633 -0.8717742 -3.63772 -19.81531 -7.655576 -0 20.10571 -0 -3.920191 -9.047913 20.07867 -2.448733 -0.9286466 6.447578 0.1062847 9.533949 -3.684095 1.315974 23.26183 5.93833 3.305051 -20.42178 7.445913 4.378803 -19.51533 10.7841 79.94485 34.1521 -6.939824 -0 0 17.33312 -17.43629 8.92452 11.85455 4.391133 -17.03818 -1.329934 -94.08482 20.93689 24.5148 0 0 -4.562127 7.794545 13.23591 3.130417
884.4747 101.9174 3127.865 5.00196 -5.381789 23.71997 -0.9671287 14.17777 3.67515 -0 44.80272 -0 0.2162362 3.030041 -1.837949 -4.979722 -15.36659 -8.331456 -0 21.55628 -0 -3.104881 -9.870806 19.36911 -2.368228 -0.9353748 6.220474 0.2938539 9.621336 -3.994157 1.35045 23.11652 6.032506 3.351809 -20.72644 7.603043 4.574916 -19.19193 10.83812 80.51229 34.42408 -8.037813 -0 0 16.63565 -16.76431 9.106887 11.27793 4.558692 -17.36044 -1.344441 -93.70655 20.87908 23.68872 0 0 -5.549951 8.273347 13.30797 2.642493
888.2068 103.28 3133.505 5.206407 -5.681623 24.76283 -0.9721899 8.346148 3.536755 -0 51.81037 -0 0.4369445 6.410092 -2.973734 -5.684458 -10.24738 -8.594605 -0 21.54837 -0 -2.400044 -10.87581 18.54392 -2.258721 -0.9267481 5.913967 0.5688776 9.729637 -4.430922 1.391558 22.88399 6.162506 3.403535 -21.17331 7.81458 4.790432 -18.77985 10.92801 81.30125 34.76016 -9.502931 -0 0 15.70173 -15.92725 9.393779 10.55537 4.790904 -17.78478 -1.341407 -93.12145 20.75216 22.51856 0 0 -7.021715 8.92993 13.30739 1.94884
891.6739 104.6543 3138.681 4.976709 -5.866204 25.95916 -0.6312369 1.165066 3.219558 -0 54.37942 -0 0.2742292 7.436477 -4.041335 -5.80624 -4.961687 -8.658328 -0 19.85459 -0 -1.943038 -12.17534 17.78603 -2.134654 -0.9070429 5.547267 0.9227291 9.831375 -4.965968 1.432019 22.56466 6.329899 3.454796 -21.74157 8.075004 4.991294 -18.32501 11.05289 82.24361 35.13103 -11.19714 -0 0 14.62015 -15.0076 9.788741 9.765467 5.0761 -18.2755 -1.310709 -92.34888 20.53278 21.08237 0 0 -8.922862 9.737687 13.21564 1.065058
894.8679 105.6193 3143.463 4.558542 -5.934281 27.13446 -0.2339908 -6.238094 2.666853 -0 51.74478 -0 -0.3461859 6.29437 -4.883653 -5.609936 0.1017067 -8.715956 -0 17.10005 -0 -1.831122 -13.87965 17.08854 -2.01067 -0.8814971 5.140544 1.338853 9.899604 -5.562767 1.465691 22.16933 6.536027 3.505003 -22.39548 8.376037 5.150381 -17.86376 11.20711 83.26425 35.5133 -12.98057 -0 0 13.47122 -14.08399 10.28595 8.980577 5.400233 -18.79931 -1.250585 -91.42363 20.20951 19.46648 0 0 -11.17068 10.6584 13.02648 0.02621644
897.843 105.906 3148.033 4.196983 -5.826906 28.17735 -0.02003118 -12.92827 1.786686 -0 44.70609 -0 -1.208119 3.868744 -5.497222 -5.382425 4.712213 -8.783372 -0 14.2437 -0 -2.011856 -15.93571 16.35548 -1.899038 -0.8565372 4.711699 1.796857 9.91361 -6.185461 1.488903 21.7149 6.781128 3.557239 -23.09568 8.709013 5.251928 -17.41855 11.38123 84.29731 35.8931 -14.74163 -0 0 12.31615 -13.21458 10.871 8.252461 5.750708 -19.33228 -1.165967 -90.38953 19.78729 17.75095 0 0 -13.6756 11.6493 12.74657 -1.11837
900.6938 105.4559 3152.614 3.977423 -5.4531 29.04988 -0.05671417 -18.43521 0.6436707 -0 35.03742 -0 -1.926959 1.308849 -5.957556 -5.285047 8.76067 -8.732494 -0 12.09277 -0 -2.325882 -18.05742 15.51789 -1.808417 -0.8399433 4.277677 2.275862 9.862652 -6.804198 1.499351 21.2202 7.062283 3.615434 -23.80892 9.06375 5.289916 -17.00408 11.56413 85.29412 36.26098 -16.4072 -0 0 11.2025 -12.43312 11.5169 7.611285 6.116709 -19.86093 -1.065766 -89.29814 19.29103 16.01406 0 0 -16.34886 12.66212 12.39004 -2.30361
903.5354 104.392 3157.419 3.839698 -4.783346 29.771 -0.2176789 -22.63455 -0.4662946 -0 24.78071 -0 -2.169921 -0.4556576 -6.337105 -5.320792 12.22475 -8.463042 -0 11.17514 -0 -2.727736 -19.82508 14.54087 -1.742381 -0.8390196 3.860593 2.752741 9.752231 -7.393979 1.493544 20.70784 7.367782 3.681716 -24.50744 9.419973 5.265342 -16.63764 11.74411 86.22339 36.59836 -17.93644 -0 0 10.17731 -11.7565 12.16981 7.074158 6.483921 -20.37834 -0.9641982 -88.21769 18.77272 14.3549 0 0 -19.07852 13.62714 11.97102 -3.430814
906.4746 102.958 3162.615 3.683593 -3.922339 30.38776 -0.2594738 -25.47079 -1.13535 -0 15.80231 -0 -1.81805 -1.013017 -6.691976 -5.38005 15.12127 -8.027036 -0 11.8647 -0 -3.380173 -20.80899 13.42571 -1.696573 -0.854936 3.49423 3.195064 9.614618 -7.928675 1.465544 20.21416 7.667356 3.753673 -25.15393 9.733326 5.18783 -16.34398 11.90862 87.06771 36.86188 -19.30647 -0 0 9.293815 -11.19872 12.73357 6.655173 6.824827 -20.87609 -0.8860906 -87.24404 18.31809 12.91296 0 0 -21.6788 14.43077 11.50193 -4.34551
909.5818 101.4636 3168.301 3.459971 -3.134374 30.9368 0.07211031 -26.79965 -1.041781 -0 9.603981 -0 -1.034529 -0.5183345 -7.057901 -5.313116 17.42423 -7.602429 -0 14.55294 -0 -4.454937 -20.63774 12.30345 -1.657241 -0.8767 3.223564 3.55552 9.512783 -8.375401 1.409618 19.79886 7.905999 3.821087 -25.68182 9.930048 5.081446 -16.14954 12.04338 87.81404 36.98297 -20.4925 -0 0 8.606561 -10.78229 13.07878 6.369481 7.091806 -21.33329 -0.8676731 -86.49632 18.03913 11.85761 0 0 -23.85744 14.9142 11.00469 -4.84522
